<?xml version="1.0" encoding="UTF-8" standalone="no"?><svg xmlns="http://www.w3.org/2000/svg" xmlns:xlink="http://www.w3.org/1999/xlink" contentScriptType="application/ecmascript" contentStyleType="text/css" height="260px" preserveAspectRatio="none" style="width:467px;height:260px;" version="1.1" viewBox="0 0 467 260" width="467px" zoomAndPan="magnify"><defs><filter height="300%" id="f5w0bnins0l97" width="300%" x="-1" y="-1"><feGaussianBlur result="blurOut" stdDeviation="2.0"/><feColorMatrix in="blurOut" result="blurOut2" type="matrix" values="0 0 0 0 0 0 0 0 0 0 0 0 0 0 0 0 0 0 .4 0"/><feOffset dx="4.0" dy="4.0" in="blurOut2" result="blurOut3"/><feBlend in="SourceGraphic" in2="blurOut3" mode="normal"/></filter></defs><g><!--MD5=[6e9777c8129cf557b2a7de7f5ce1151e]
class XForwardedForImpl--><rect fill="#FEFECE" filter="url(#f5w0bnins0l97)" height="73.6094" id="XForwardedForImpl" style="stroke: #A80036; stroke-width: 1.5;" width="150" x="6" y="29"/><ellipse cx="21" cy="45" fill="#ADD1B2" rx="11" ry="11" style="stroke: #A80036; stroke-width: 1.0;"/><path d="M23.9688,50.6406 Q23.3906,50.9375 22.75,51.0781 Q22.1094,51.2344 21.4063,51.2344 Q18.9063,51.2344 17.5781,49.5938 Q16.2656,47.9375 16.2656,44.8125 Q16.2656,41.6875 17.5781,40.0313 Q18.9063,38.375 21.4063,38.375 Q22.1094,38.375 22.75,38.5313 Q23.4063,38.6875 23.9688,38.9844 L23.9688,41.7031 Q23.3438,41.125 22.75,40.8594 Q22.1563,40.5781 21.5313,40.5781 Q20.1875,40.5781 19.5,41.6563 Q18.8125,42.7188 18.8125,44.8125 Q18.8125,46.9063 19.5,47.9844 Q20.1875,49.0469 21.5313,49.0469 Q22.1563,49.0469 22.75,48.7813 Q23.3438,48.5 23.9688,47.9219 L23.9688,50.6406 Z "/><text fill="#000000" font-family="sans-serif" font-size="12" lengthAdjust="spacingAndGlyphs" textLength="118" x="35" y="49.1543">XForwardedForImpl</text><line style="stroke: #A80036; stroke-width: 1.5;" x1="7" x2="155" y1="61" y2="61"/><line style="stroke: #A80036; stroke-width: 1.5;" x1="7" x2="155" y1="69" y2="69"/><ellipse cx="17" cy="80" fill="#84BE84" rx="3" ry="3" style="stroke: #038048; stroke-width: 1.0;"/><text fill="#000000" font-family="sans-serif" font-size="11" lengthAdjust="spacingAndGlyphs" textLength="44" x="26" y="83.2104">isStub()</text><ellipse cx="17" cy="92.8047" fill="#84BE84" rx="3" ry="3" style="stroke: #038048; stroke-width: 1.0;"/><text fill="#000000" font-family="sans-serif" font-size="11" lengthAdjust="spacingAndGlyphs" textLength="38" x="26" y="96.0151">value()</text><!--MD5=[f0f6369f92993c7ef0291e292aba5303]
class HeaderInfo--><rect fill="#FEFECE" filter="url(#f5w0bnins0l97)" height="48" id="HeaderInfo" style="stroke: #A80036; stroke-width: 1.5;" width="101" x="30.5" y="201"/><ellipse cx="45.5" cy="217" fill="#ADD1B2" rx="11" ry="11" style="stroke: #A80036; stroke-width: 1.0;"/><path d="M48.4688,222.6406 Q47.8906,222.9375 47.25,223.0781 Q46.6094,223.2344 45.9063,223.2344 Q43.4063,223.2344 42.0781,221.5938 Q40.7656,219.9375 40.7656,216.8125 Q40.7656,213.6875 42.0781,212.0313 Q43.4063,210.375 45.9063,210.375 Q46.6094,210.375 47.25,210.5313 Q47.9063,210.6875 48.4688,210.9844 L48.4688,213.7031 Q47.8438,213.125 47.25,212.8594 Q46.6563,212.5781 46.0313,212.5781 Q44.6875,212.5781 44,213.6563 Q43.3125,214.7188 43.3125,216.8125 Q43.3125,218.9063 44,219.9844 Q44.6875,221.0469 46.0313,221.0469 Q46.6563,221.0469 47.25,220.7813 Q47.8438,220.5 48.4688,219.9219 L48.4688,222.6406 Z "/><text fill="#000000" font-family="sans-serif" font-size="12" lengthAdjust="spacingAndGlyphs" textLength="69" x="59.5" y="221.1543">HeaderInfo</text><line style="stroke: #A80036; stroke-width: 1.5;" x1="31.5" x2="130.5" y1="233" y2="233"/><line style="stroke: #A80036; stroke-width: 1.5;" x1="31.5" x2="130.5" y1="241" y2="241"/><path d="M191,8 L191,62 L156.15,66 L191,70 L191,123.9297 A0,0 0 0 0 191,123.9297 L455,123.9297 A0,0 0 0 0 455,123.9297 L455,18 L445,8 L191,8 A0,0 0 0 0 191,8 " fill="#FBFB77" filter="url(#f5w0bnins0l97)" style="stroke: #A80036; stroke-width: 1.0;"/><path d="M445,8 L445,18 L455,18 L445,8 " fill="#FBFB77" style="stroke: #A80036; stroke-width: 1.0;"/><text fill="#000000" font-family="sans-serif" font-size="13" lengthAdjust="spacingAndGlyphs" textLength="101" x="197" y="25.0669">Responsibilities:</text><text fill="#000000" font-family="sans-serif" font-size="13" lengthAdjust="spacingAndGlyphs" textLength="220" x="197" y="40.1997">- Provide value of the HTTP header</text><text fill="#000000" font-family="sans-serif" font-size="13" lengthAdjust="spacingAndGlyphs" textLength="243" x="197" y="55.3325">- Tell others that it is not a stub object</text><text fill="#000000" font-family="sans-serif" font-size="13" lengthAdjust="spacingAndGlyphs" textLength="0" x="201" y="70.4653"/><text fill="#000000" font-family="sans-serif" font-size="13" lengthAdjust="spacingAndGlyphs" textLength="89" x="197" y="85.5981">Collaborators:</text><text fill="#000000" font-family="sans-serif" font-size="13" lengthAdjust="spacingAndGlyphs" textLength="79" x="197" y="100.731">- HeaderInfo</text><text fill="#000000" font-family="sans-serif" font-size="13" lengthAdjust="spacingAndGlyphs" textLength="0" x="201" y="115.8638"/><!--MD5=[160c6a91391b8cc427664b0870cffd29]
link XForwardedForImpl to HeaderInfo--><path d="M81,103.02 C81,131.2 81,169.82 81,195.78 " fill="none" id="XForwardedForImpl-&gt;HeaderInfo" style="stroke: #A80036; stroke-width: 1.0;"/><polygon fill="#A80036" points="81,200.8,85,191.8,81,195.8,77,191.8,81,200.8" style="stroke: #A80036; stroke-width: 1.0;"/><text fill="#000000" font-family="sans-serif" font-size="13" lengthAdjust="spacingAndGlyphs" textLength="162" x="82" y="167.0669">Value of the HTTP header</text><!--MD5=[6b71b6ec53f0b3fc18e33118831992a3]
@startuml inline_umlgraph_4.svg
class XForwardedForImpl {
  + isStub()
  + value()
}

XForwardedForImpl - -> HeaderInfo : Value of the HTTP header

note right of XForwardedForImpl
Responsibilities:
- Provide value of the HTTP header
- Tell others that it is not a stub object

Collaborators:
- HeaderInfo

end note
@enduml

PlantUML version 1.2020.02(Sun Mar 01 10:22:07 UTC 2020)
(GPL source distribution)
Java Runtime: OpenJDK Runtime Environment
JVM: OpenJDK 64-Bit Server VM
Java Version: 17.0.14+7
Operating System: Linux
Default Encoding: UTF-8
Language: en
Country: null
--></g></svg>