<?xml version="1.0" encoding="UTF-8" standalone="no"?><svg xmlns="http://www.w3.org/2000/svg" xmlns:xlink="http://www.w3.org/1999/xlink" contentScriptType="application/ecmascript" contentStyleType="text/css" height="260px" preserveAspectRatio="none" style="width:500px;height:260px;" version="1.1" viewBox="0 0 500 260" width="500px" zoomAndPan="magnify"><defs><filter height="300%" id="f3d1pf4t2sthe" width="300%" x="-1" y="-1"><feGaussianBlur result="blurOut" stdDeviation="2.0"/><feColorMatrix in="blurOut" result="blurOut2" type="matrix" values="0 0 0 0 0 0 0 0 0 0 0 0 0 0 0 0 0 0 .4 0"/><feOffset dx="4.0" dy="4.0" in="blurOut2" result="blurOut3"/><feBlend in="SourceGraphic" in2="blurOut3" mode="normal"/></filter></defs><g><!--MD5=[0a73d8e1ce51d68091fa1320bb359726]
class XForwardedProtoStub--><rect fill="#FEFECE" filter="url(#f3d1pf4t2sthe)" height="73.6094" id="XForwardedProtoStub" style="stroke: #A80036; stroke-width: 1.5;" width="168" x="6" y="29"/><ellipse cx="21" cy="45" fill="#ADD1B2" rx="11" ry="11" style="stroke: #A80036; stroke-width: 1.0;"/><path d="M23.9688,50.6406 Q23.3906,50.9375 22.75,51.0781 Q22.1094,51.2344 21.4063,51.2344 Q18.9063,51.2344 17.5781,49.5938 Q16.2656,47.9375 16.2656,44.8125 Q16.2656,41.6875 17.5781,40.0313 Q18.9063,38.375 21.4063,38.375 Q22.1094,38.375 22.75,38.5313 Q23.4063,38.6875 23.9688,38.9844 L23.9688,41.7031 Q23.3438,41.125 22.75,40.8594 Q22.1563,40.5781 21.5313,40.5781 Q20.1875,40.5781 19.5,41.6563 Q18.8125,42.7188 18.8125,44.8125 Q18.8125,46.9063 19.5,47.9844 Q20.1875,49.0469 21.5313,49.0469 Q22.1563,49.0469 22.75,48.7813 Q23.3438,48.5 23.9688,47.9219 L23.9688,50.6406 Z "/><text fill="#000000" font-family="sans-serif" font-size="12" lengthAdjust="spacingAndGlyphs" textLength="136" x="35" y="49.1543">XForwardedProtoStub</text><line style="stroke: #A80036; stroke-width: 1.5;" x1="7" x2="173" y1="61" y2="61"/><line style="stroke: #A80036; stroke-width: 1.5;" x1="7" x2="173" y1="69" y2="69"/><ellipse cx="17" cy="80" fill="#84BE84" rx="3" ry="3" style="stroke: #038048; stroke-width: 1.0;"/><text fill="#000000" font-family="sans-serif" font-size="11" lengthAdjust="spacingAndGlyphs" textLength="44" x="26" y="83.2104">isStub()</text><ellipse cx="17" cy="92.8047" fill="#84BE84" rx="3" ry="3" style="stroke: #038048; stroke-width: 1.0;"/><text fill="#000000" font-family="sans-serif" font-size="11" lengthAdjust="spacingAndGlyphs" textLength="38" x="26" y="96.0151">value()</text><!--MD5=[f0f6369f92993c7ef0291e292aba5303]
class HeaderInfo--><rect fill="#FEFECE" filter="url(#f3d1pf4t2sthe)" height="48" id="HeaderInfo" style="stroke: #A80036; stroke-width: 1.5;" width="101" x="39.5" y="201"/><ellipse cx="54.5" cy="217" fill="#ADD1B2" rx="11" ry="11" style="stroke: #A80036; stroke-width: 1.0;"/><path d="M57.4688,222.6406 Q56.8906,222.9375 56.25,223.0781 Q55.6094,223.2344 54.9063,223.2344 Q52.4063,223.2344 51.0781,221.5938 Q49.7656,219.9375 49.7656,216.8125 Q49.7656,213.6875 51.0781,212.0313 Q52.4063,210.375 54.9063,210.375 Q55.6094,210.375 56.25,210.5313 Q56.9063,210.6875 57.4688,210.9844 L57.4688,213.7031 Q56.8438,213.125 56.25,212.8594 Q55.6563,212.5781 55.0313,212.5781 Q53.6875,212.5781 53,213.6563 Q52.3125,214.7188 52.3125,216.8125 Q52.3125,218.9063 53,219.9844 Q53.6875,221.0469 55.0313,221.0469 Q55.6563,221.0469 56.25,220.7813 Q56.8438,220.5 57.4688,219.9219 L57.4688,222.6406 Z "/><text fill="#000000" font-family="sans-serif" font-size="12" lengthAdjust="spacingAndGlyphs" textLength="69" x="68.5" y="221.1543">HeaderInfo</text><line style="stroke: #A80036; stroke-width: 1.5;" x1="40.5" x2="139.5" y1="233" y2="233"/><line style="stroke: #A80036; stroke-width: 1.5;" x1="40.5" x2="139.5" y1="241" y2="241"/><path d="M209.5,8 L209.5,62 L174.23,66 L209.5,70 L209.5,123.9297 A0,0 0 0 0 209.5,123.9297 L488.5,123.9297 A0,0 0 0 0 488.5,123.9297 L488.5,18 L478.5,8 L209.5,8 A0,0 0 0 0 209.5,8 " fill="#FBFB77" filter="url(#f3d1pf4t2sthe)" style="stroke: #A80036; stroke-width: 1.0;"/><path d="M478.5,8 L478.5,18 L488.5,18 L478.5,8 " fill="#FBFB77" style="stroke: #A80036; stroke-width: 1.0;"/><text fill="#000000" font-family="sans-serif" font-size="13" lengthAdjust="spacingAndGlyphs" textLength="101" x="215.5" y="25.0669">Responsibilities:</text><text fill="#000000" font-family="sans-serif" font-size="13" lengthAdjust="spacingAndGlyphs" textLength="258" x="215.5" y="40.1997">- Throw an exception if value is asked for</text><text fill="#000000" font-family="sans-serif" font-size="13" lengthAdjust="spacingAndGlyphs" textLength="218" x="215.5" y="55.3325">- Tell others that it is a stub object</text><text fill="#000000" font-family="sans-serif" font-size="13" lengthAdjust="spacingAndGlyphs" textLength="0" x="219.5" y="70.4653"/><text fill="#000000" font-family="sans-serif" font-size="13" lengthAdjust="spacingAndGlyphs" textLength="89" x="215.5" y="85.5981">Collaborators:</text><text fill="#000000" font-family="sans-serif" font-size="13" lengthAdjust="spacingAndGlyphs" textLength="79" x="215.5" y="100.731">- HeaderInfo</text><text fill="#000000" font-family="sans-serif" font-size="13" lengthAdjust="spacingAndGlyphs" textLength="0" x="219.5" y="115.8638"/><!--MD5=[e11c0b122d46ba7c9d5588236a6db064]
link XForwardedProtoStub to HeaderInfo--><path d="M90,103.02 C90,131.2 90,169.82 90,195.78 " fill="none" id="XForwardedProtoStub-&gt;HeaderInfo" style="stroke: #A80036; stroke-width: 1.0;"/><polygon fill="#A80036" points="90,200.8,94,191.8,90,195.8,86,191.8,90,200.8" style="stroke: #A80036; stroke-width: 1.0;"/><text fill="#000000" font-family="sans-serif" font-size="13" lengthAdjust="spacingAndGlyphs" textLength="121" x="91" y="167.0669">Tell that it is a stub</text><!--MD5=[d267ef036387ae8af627aaf2d7c79e81]
@startuml inline_umlgraph_9.svg
class XForwardedProtoStub {
  + isStub()
  + value()
}

XForwardedProtoStub - -> HeaderInfo : Tell that it is a stub

note right of XForwardedProtoStub
Responsibilities:
- Throw an exception if value is asked for
- Tell others that it is a stub object

Collaborators:
- HeaderInfo

end note
@enduml

PlantUML version 1.2020.02(Sun Mar 01 10:22:07 UTC 2020)
(GPL source distribution)
Java Runtime: OpenJDK Runtime Environment
JVM: OpenJDK 64-Bit Server VM
Java Version: 17.0.14+7
Operating System: Linux
Default Encoding: UTF-8
Language: en
Country: null
--></g></svg>