<?xml version="1.0" encoding="UTF-8" standalone="no"?><svg xmlns="http://www.w3.org/2000/svg" xmlns:xlink="http://www.w3.org/1999/xlink" contentScriptType="application/ecmascript" contentStyleType="text/css" height="415px" preserveAspectRatio="none" style="width:819px;height:415px;" version="1.1" viewBox="0 0 819 415" width="819px" zoomAndPan="magnify"><defs><filter height="300%" id="f1jhhx5yfsyvcf" width="300%" x="-1" y="-1"><feGaussianBlur result="blurOut" stdDeviation="2.0"/><feColorMatrix in="blurOut" result="blurOut2" type="matrix" values="0 0 0 0 0 0 0 0 0 0 0 0 0 0 0 0 0 0 .4 0"/><feOffset dx="4.0" dy="4.0" in="blurOut2" result="blurOut3"/><feBlend in="SourceGraphic" in2="blurOut3" mode="normal"/></filter></defs><g><!--MD5=[f0f6369f92993c7ef0291e292aba5303]
class HeaderInfo--><rect fill="#FEFECE" filter="url(#f1jhhx5yfsyvcf)" height="60.8047" id="HeaderInfo" style="stroke: #A80036; stroke-width: 1.5;" width="110" x="281.5" y="175.5"/><ellipse cx="300.55" cy="191.5" fill="#ADD1B2" rx="11" ry="11" style="stroke: #A80036; stroke-width: 1.0;"/><path d="M303.5188,197.1406 Q302.9406,197.4375 302.3,197.5781 Q301.6594,197.7344 300.9563,197.7344 Q298.4563,197.7344 297.1281,196.0938 Q295.8156,194.4375 295.8156,191.3125 Q295.8156,188.1875 297.1281,186.5313 Q298.4563,184.875 300.9563,184.875 Q301.6594,184.875 302.3,185.0313 Q302.9563,185.1875 303.5188,185.4844 L303.5188,188.2031 Q302.8938,187.625 302.3,187.3594 Q301.7063,187.0781 301.0813,187.0781 Q299.7375,187.0781 299.05,188.1563 Q298.3625,189.2188 298.3625,191.3125 Q298.3625,193.4063 299.05,194.4844 Q299.7375,195.5469 301.0813,195.5469 Q301.7063,195.5469 302.3,195.2813 Q302.8938,195 303.5188,194.4219 L303.5188,197.1406 Z "/><text fill="#000000" font-family="sans-serif" font-size="12" lengthAdjust="spacingAndGlyphs" textLength="69" x="315.45" y="195.6543">HeaderInfo</text><line style="stroke: #A80036; stroke-width: 1.5;" x1="282.5" x2="390.5" y1="207.5" y2="207.5"/><line style="stroke: #A80036; stroke-width: 1.5;" x1="282.5" x2="390.5" y1="215.5" y2="215.5"/><ellipse cx="292.5" cy="226.5" fill="#84BE84" rx="3" ry="3" style="stroke: #038048; stroke-width: 1.0;"/><text fill="#000000" font-family="sans-serif" font-size="11" lengthAdjust="spacingAndGlyphs" textLength="84" x="301.5" y="229.7104">asSDElement()</text><!--MD5=[0ebf3a0931d150882cc1e7ba90c00938]
class Converter--><rect fill="#FEFECE" filter="url(#f1jhhx5yfsyvcf)" height="48" id="Converter" style="stroke: #A80036; stroke-width: 1.5;" width="93" x="290" y="356"/><ellipse cx="305" cy="372" fill="#ADD1B2" rx="11" ry="11" style="stroke: #A80036; stroke-width: 1.0;"/><path d="M307.9688,377.6406 Q307.3906,377.9375 306.75,378.0781 Q306.1094,378.2344 305.4063,378.2344 Q302.9063,378.2344 301.5781,376.5938 Q300.2656,374.9375 300.2656,371.8125 Q300.2656,368.6875 301.5781,367.0313 Q302.9063,365.375 305.4063,365.375 Q306.1094,365.375 306.75,365.5313 Q307.4063,365.6875 307.9688,365.9844 L307.9688,368.7031 Q307.3438,368.125 306.75,367.8594 Q306.1563,367.5781 305.5313,367.5781 Q304.1875,367.5781 303.5,368.6563 Q302.8125,369.7188 302.8125,371.8125 Q302.8125,373.9063 303.5,374.9844 Q304.1875,376.0469 305.5313,376.0469 Q306.1563,376.0469 306.75,375.7813 Q307.3438,375.5 307.9688,374.9219 L307.9688,377.6406 Z "/><text fill="#000000" font-family="sans-serif" font-size="12" lengthAdjust="spacingAndGlyphs" textLength="61" x="319" y="376.1543">Converter</text><line style="stroke: #A80036; stroke-width: 1.5;" x1="291" x2="382" y1="388" y2="388"/><line style="stroke: #A80036; stroke-width: 1.5;" x1="291" x2="382" y1="396" y2="396"/><!--MD5=[1ecc61f602560953035f41737d7eccaf]
class XForwardedFor--><rect fill="#FEFECE" filter="url(#f1jhhx5yfsyvcf)" height="48" id="XForwardedFor" style="stroke: #A80036; stroke-width: 1.5;" width="125" x="6" y="8"/><ellipse cx="21" cy="24" fill="#ADD1B2" rx="11" ry="11" style="stroke: #A80036; stroke-width: 1.0;"/><path d="M23.9688,29.6406 Q23.3906,29.9375 22.75,30.0781 Q22.1094,30.2344 21.4063,30.2344 Q18.9063,30.2344 17.5781,28.5938 Q16.2656,26.9375 16.2656,23.8125 Q16.2656,20.6875 17.5781,19.0313 Q18.9063,17.375 21.4063,17.375 Q22.1094,17.375 22.75,17.5313 Q23.4063,17.6875 23.9688,17.9844 L23.9688,20.7031 Q23.3438,20.125 22.75,19.8594 Q22.1563,19.5781 21.5313,19.5781 Q20.1875,19.5781 19.5,20.6563 Q18.8125,21.7188 18.8125,23.8125 Q18.8125,25.9063 19.5,26.9844 Q20.1875,28.0469 21.5313,28.0469 Q22.1563,28.0469 22.75,27.7813 Q23.3438,27.5 23.9688,26.9219 L23.9688,29.6406 Z "/><text fill="#000000" font-family="sans-serif" font-size="12" lengthAdjust="spacingAndGlyphs" textLength="93" x="35" y="28.1543">XForwardedFor</text><line style="stroke: #A80036; stroke-width: 1.5;" x1="7" x2="130" y1="40" y2="40"/><line style="stroke: #A80036; stroke-width: 1.5;" x1="7" x2="130" y1="48" y2="48"/><!--MD5=[d34966f009bcbf6eb21b45f3fbb4ec14]
class XForwardedHost--><rect fill="#FEFECE" filter="url(#f1jhhx5yfsyvcf)" height="48" id="XForwardedHost" style="stroke: #A80036; stroke-width: 1.5;" width="134" x="269.5" y="8"/><ellipse cx="284.5" cy="24" fill="#ADD1B2" rx="11" ry="11" style="stroke: #A80036; stroke-width: 1.0;"/><path d="M287.4688,29.6406 Q286.8906,29.9375 286.25,30.0781 Q285.6094,30.2344 284.9063,30.2344 Q282.4063,30.2344 281.0781,28.5938 Q279.7656,26.9375 279.7656,23.8125 Q279.7656,20.6875 281.0781,19.0313 Q282.4063,17.375 284.9063,17.375 Q285.6094,17.375 286.25,17.5313 Q286.9063,17.6875 287.4688,17.9844 L287.4688,20.7031 Q286.8438,20.125 286.25,19.8594 Q285.6563,19.5781 285.0313,19.5781 Q283.6875,19.5781 283,20.6563 Q282.3125,21.7188 282.3125,23.8125 Q282.3125,25.9063 283,26.9844 Q283.6875,28.0469 285.0313,28.0469 Q285.6563,28.0469 286.25,27.7813 Q286.8438,27.5 287.4688,26.9219 L287.4688,29.6406 Z "/><text fill="#000000" font-family="sans-serif" font-size="12" lengthAdjust="spacingAndGlyphs" textLength="102" x="298.5" y="28.1543">XForwardedHost</text><line style="stroke: #A80036; stroke-width: 1.5;" x1="270.5" x2="402.5" y1="40" y2="40"/><line style="stroke: #A80036; stroke-width: 1.5;" x1="270.5" x2="402.5" y1="48" y2="48"/><!--MD5=[5410e89f0be8c23a04a943f6eb3549f2]
class XForwardedProto--><rect fill="#FEFECE" filter="url(#f1jhhx5yfsyvcf)" height="48" id="XForwardedProto" style="stroke: #A80036; stroke-width: 1.5;" width="139" x="535" y="8"/><ellipse cx="550" cy="24" fill="#ADD1B2" rx="11" ry="11" style="stroke: #A80036; stroke-width: 1.0;"/><path d="M552.9688,29.6406 Q552.3906,29.9375 551.75,30.0781 Q551.1094,30.2344 550.4063,30.2344 Q547.9063,30.2344 546.5781,28.5938 Q545.2656,26.9375 545.2656,23.8125 Q545.2656,20.6875 546.5781,19.0313 Q547.9063,17.375 550.4063,17.375 Q551.1094,17.375 551.75,17.5313 Q552.4063,17.6875 552.9688,17.9844 L552.9688,20.7031 Q552.3438,20.125 551.75,19.8594 Q551.1563,19.5781 550.5313,19.5781 Q549.1875,19.5781 548.5,20.6563 Q547.8125,21.7188 547.8125,23.8125 Q547.8125,25.9063 548.5,26.9844 Q549.1875,28.0469 550.5313,28.0469 Q551.1563,28.0469 551.75,27.7813 Q552.3438,27.5 552.9688,26.9219 L552.9688,29.6406 Z "/><text fill="#000000" font-family="sans-serif" font-size="12" lengthAdjust="spacingAndGlyphs" textLength="107" x="564" y="28.1543">XForwardedProto</text><line style="stroke: #A80036; stroke-width: 1.5;" x1="536" x2="673" y1="40" y2="40"/><line style="stroke: #A80036; stroke-width: 1.5;" x1="536" x2="673" y1="48" y2="48"/><path d="M427,133 L427,202 L391.75,206 L427,210 L427,279.1953 A0,0 0 0 0 427,279.1953 L688,279.1953 A0,0 0 0 0 688,279.1953 L688,143 L678,133 L427,133 A0,0 0 0 0 427,133 " fill="#FBFB77" filter="url(#f1jhhx5yfsyvcf)" style="stroke: #A80036; stroke-width: 1.0;"/><path d="M678,133 L678,143 L688,143 L678,133 " fill="#FBFB77" style="stroke: #A80036; stroke-width: 1.0;"/><text fill="#000000" font-family="sans-serif" font-size="13" lengthAdjust="spacingAndGlyphs" textLength="101" x="433" y="150.0669">Responsibilities:</text><text fill="#000000" font-family="sans-serif" font-size="13" lengthAdjust="spacingAndGlyphs" textLength="240" x="433" y="165.1997">- Provide SDElement of HTTP headers</text><text fill="#000000" font-family="sans-serif" font-size="13" lengthAdjust="spacingAndGlyphs" textLength="0" x="437" y="180.3325"/><text fill="#000000" font-family="sans-serif" font-size="13" lengthAdjust="spacingAndGlyphs" textLength="89" x="433" y="195.4653">Collaborators:</text><text fill="#000000" font-family="sans-serif" font-size="13" lengthAdjust="spacingAndGlyphs" textLength="103" x="433" y="210.5981">- XForwardedFor</text><text fill="#000000" font-family="sans-serif" font-size="13" lengthAdjust="spacingAndGlyphs" textLength="120" x="433" y="225.731">- XForwardedHosts</text><text fill="#000000" font-family="sans-serif" font-size="13" lengthAdjust="spacingAndGlyphs" textLength="117" x="433" y="240.8638">- XForwardedProto</text><text fill="#000000" font-family="sans-serif" font-size="13" lengthAdjust="spacingAndGlyphs" textLength="81" x="433" y="255.9966">- SDElement</text><text fill="#000000" font-family="sans-serif" font-size="13" lengthAdjust="spacingAndGlyphs" textLength="0" x="437" y="271.1294"/><!--MD5=[515f697b06ad04309168ea0f1276b5a3]
link HeaderInfo to Converter--><path d="M336.5,236.57 C336.5,268.53 336.5,319.11 336.5,350.6 " fill="none" id="HeaderInfo-&gt;Converter" style="stroke: #A80036; stroke-width: 1.0;"/><polygon fill="#A80036" points="336.5,355.87,340.5,346.87,336.5,350.87,332.5,346.87,336.5,355.87" style="stroke: #A80036; stroke-width: 1.0;"/><text fill="#000000" font-family="sans-serif" font-size="13" lengthAdjust="spacingAndGlyphs" textLength="180" x="337.5" y="322.0669">SDElement of HTTP headers</text><!--MD5=[94d86241e20b3712a8bc3b20a6f7d9bc]
link XForwardedFor to HeaderInfo--><path d="M72.89,56.01 C76.82,71.04 83.96,90.19 96.5,103 C145.43,152.99 222.73,179.79 276.32,193.19 " fill="none" id="XForwardedFor-&gt;HeaderInfo" style="stroke: #A80036; stroke-width: 1.0;"/><polygon fill="#A80036" points="281.44,194.44,273.6621,188.3981,276.5859,193.2408,271.7433,196.1646,281.44,194.44" style="stroke: #A80036; stroke-width: 1.0;"/><text fill="#000000" font-family="sans-serif" font-size="13" lengthAdjust="spacingAndGlyphs" textLength="226" x="97.5" y="99.0669">Information about this HTTP header</text><!--MD5=[b031b369246e2df666b541fec74e3b8d]
link XForwardedHost to HeaderInfo--><path d="M334.9,56.21 C334.34,65.47 333.78,76.23 333.5,86 C332.7,114.23 333.61,146.23 334.63,169.94 " fill="none" id="XForwardedHost-&gt;HeaderInfo" style="stroke: #A80036; stroke-width: 1.0;"/><polygon fill="#A80036" points="334.86,175.17,338.4448,165.9967,334.6317,170.1752,330.4532,166.3621,334.86,175.17" style="stroke: #A80036; stroke-width: 1.0;"/><text fill="#000000" font-family="sans-serif" font-size="13" lengthAdjust="spacingAndGlyphs" textLength="226" x="334.5" y="99.0669">Information about this HTTP header</text><!--MD5=[9aa81dedb1e763dd133ea3ef2b5293e0]
link XForwardedProto to HeaderInfo--><path d="M597.45,56.06 C591.46,71.72 581.28,91.58 565.5,103 C508.29,144.38 471.99,100.13 409.5,133 C391.79,142.32 375.55,157.34 362.91,171.25 " fill="none" id="XForwardedProto-&gt;HeaderInfo" style="stroke: #A80036; stroke-width: 1.0;"/><polygon fill="#A80036" points="359.45,175.15,368.4276,171.0999,362.7798,171.4201,362.4597,165.7723,359.45,175.15" style="stroke: #A80036; stroke-width: 1.0;"/><text fill="#000000" font-family="sans-serif" font-size="13" lengthAdjust="spacingAndGlyphs" textLength="226" x="581.5" y="99.0669">Information about this HTTP header</text><!--MD5=[f99d6bdacb72fe314e65c51d0a7088f9]
@startuml inline_umlgraph_3.svg
class HeaderInfo {
  + asSDElement()
}

HeaderInfo - -> Converter : SDElement of HTTP headers

XForwardedFor - -> HeaderInfo : Information about this HTTP header
XForwardedHost - -> HeaderInfo : Information about this HTTP header
XForwardedProto - -> HeaderInfo : Information about this HTTP header

note right of HeaderInfo
Responsibilities:
- Provide SDElement of HTTP headers

Collaborators:
- XForwardedFor
- XForwardedHosts
- XForwardedProto
- SDElement

end note
@enduml

PlantUML version 1.2020.02(Sun Mar 01 10:22:07 UTC 2020)
(GPL source distribution)
Java Runtime: OpenJDK Runtime Environment
JVM: OpenJDK 64-Bit Server VM
Java Version: 17.0.14+7
Operating System: Linux
Default Encoding: UTF-8
Language: en
Country: null
--></g></svg>